<?xml version="1.0" encoding="UTF-8"?>
<svg version="1.1" viewBox="0 0 744.09448819 1052.3622047" xmlns="http://www.w3.org/2000/svg">
 <script type="application/x-javascript">var Clock = new function() { window.addEventListener("load", setClock); function setClock() { var sec; var min; var hr; var deg; var node; var dt = new Date(); var deg=0; min = dt.getMinutes(); sec = dt.getSeconds(); ms = dt.getMilliseconds(); deg = (360/60)*(sec+ms/1000); node = document.getElementById("seconds"); deg %= 360; node.setAttribute("transform","rotate("+deg+",367.3,487.5)"); deg = (360/3600)*(60*min+sec); node = document.getElementById("minutes"); deg %= 360; node.setAttribute("transform","rotate("+deg+",367.3,487.5)"); hr = dt.getHours(); deg = 30*hr + 30/60*min; var node = document.getElementById("hours"); deg-=150; deg %= 360; node.setAttribute("transform","rotate("+deg+",367.3,487.5)"); document.getElementById("asec").beginElement(); document.getElementById("amin").beginElement(); document.getElementById("ahr").beginElement(); var timeout = ((60-dt.getSeconds())%60)*1000; timeout-=dt.getMilliseconds/1000; setTimeout(setClock,timeout); } }();</script>
 <path d="m278.78 28.75c-12.182 4.1111-14.118 19.167-14.781 30.312-0.65913 13.354 0.98407 26.666 2.2188 39.938-28.074 41.481-44.634 89.36-68.351 133.27-15.447 30.768-31.506 61.212-47.43 91.735 7.5031 11.437 24.441 19.272 36.844 10.812 2.7987-3.0225 2.631 2.5633 4.375 4.25 7.3516 12.658 24.929 19.186 38.25 12.219 1.4482 7.0245 7.5611 13.549 12.969 16.562-20.448-4.2966-41.392 3.6241-59.031 13.406-34.944 20.417-59.613 54.612-75.344 91.219-11.608 32.034-16.17 66.9-12.5 100.84 4.6457 40.238 24.772 78.272 56.425 103.64 6.2142 5.2775 12.822 10.036 19.606 14.548-25.895-3.6645-52.139-5.7144-78.344-5.0625-1.6665 2.3867 0.66253 5.4243 0.53125 7.0312-18.066 12.726-19.945 38.995-12.719 58.5 4.403 11.461 16.157 21.869 29.094 18.5 10.727-0.50917 21.103 3.4231 31.832 3.9829 44.16 6.3189 88.394 12.014 132.92 15.267-24.735 29.227-48.43 59.711-66.219 93.688-5.7666 13.744-13.628 29.325-8.6562 44.375 5.3314 9.5282 19.047 8.049 26.625 2.125 13.758-7.4398 25.743-17.624 37.25-28.156-6.5122 13.212-13.095 27.826-11.344 42.938 1.807 8.9897 12.844 15.746 21.094 10.406 7.2156-3.3537 12.626-9.3188 17.344-15.594-1.098 12.697-2.5913 27.309 4.875 38.312 7.3956 6.9142 18.908 2.0753 23.969-5.25 6.8386-7.1524 11.705-16.443 15.812-25.094-0.33879 15.755-0.54732 32.981 7.9688 46.75 6.1674 7.1982 18.567 5.9195 23.156-2.4062 5.8645-7.0948 8.6258-16.01 11.062-24.75 2.147 11.18 4.7805 24.084 14.25 31.344 8.2402 4.43 18.473-1.5475 20.688-10.125 11.447-23.502 11.916-50.388 16.339-75.711 5.2294-42.757 5.214-86.144 0.12946-128.91 46.246-5.6706 93.121-14.013 139.84-7.6158 13.146 1.293 26.234 3.2452 39.224 5.8346 8.2117-29.092 3.8638-62.266-13.25-87.188-7.7143-6.0902-18.01-1.426-26.872-2.4681-27.063 0.78597-54.14 4.3639-80.94 6.6869-4.7817-1.9145-12.365-2.6107-15.5-4.625 2.9593-2.9603 6.3241 1.5801 9.8125 0.84375 5.5734 0.77685 11.655-1.1862 16.656-1.7812 4.002 6.0764 12.037 2.4409 17.078-0.0131 26.486-11.827 44.754-36.112 59.11-60.487 29.483-54.701 31.706-123.46 6.8125-180.28-10.909-22.95-27.923-43.343-49.969-56.125 13.572-48.212 28.415-97.712 23.438-148.38-0.34033-7.6507-1.0665-15.305-0.75-22.969 22.156-11.785 42.971-27.79 56.219-49.344 4.6003-8.9164 5.1575-22.781-4.4375-28.594-6.977-2.5782-13.161 3.5432-20.156 3.3438-28.458 5.6704-60.185-0.20306-82.074-20.13-42.606-29.676-93.564-48.611-146.02-47.87-21.586-0.34831-41.79-11.475-55.638-27.556-7.0703-7.3142-11.751-16.564-17.831-24.569-1.6206-1.1765-3.6436-1.8477-5.6562-1.625zm-28.562 341.47c4.4198 0.36339-1.0708 0.68102 0 0zm-64.781 307.16c9.417 4.9624 20.314 7.8528 30.969 6.5312 5.0658 4.7409 10.584 9.2954 16.406 13.281-6.509 3.1974-13.789 3.1464-20.625 0.6875-7.1161-1.3239-14.396-1.8969-21.344-4-2.0593-5.6892-4.2394-11.327-6.3438-17l0.88235 0.47059 0.0551 0.0294z" fill="none" stroke="#000" stroke-width="3.747"/>
 <g transform="translate(397.34 -27.348)">
  <g transform="matrix(.91826 .39599 -.39599 .91826 -702.85 -127.86)">
   <path d="m956.62 685.79c-5.245 13.635-67.394 178.12-64.644 52.661 37.595-239.01 138.69-252.57 101.92-235.92 1.2135-8.1411 64.48 90.927 85 150.88 65.403 191.1-9.2781 107.77-23.958 41.785-4.2555-19.129 8.1053 37.805 10.58 71.58 2.4745 33.774-21.024 37.954-48.738-67.378 0 0 7.7912 86.674-10.146 91.845-9.7049 2.7977-28.526-52.328-24.738-85.798 4.7258-41.751-1.5343 83.817-21.855 78.417-21.759-5.7821-2.3216-98.075-3.4165-98.075z" fill="#500" stroke="#4e0000" stroke-width="3.6472"/>
   <path d="m953.31 654.48c-4.1208 9.8681-43.297 122.48-41.137 31.679 29.537-172.99 108.97-182.8 80.072-170.75 0.95341-5.8921 50.66 65.808 66.781 109.2 51.385 138.3-7.2896 78-18.823 30.242-3.3434-13.844 6.3681 27.362 8.3122 51.806s-16.518 27.469-38.292-48.765c0 0 6.1214 62.73-7.9713 66.473-7.6248 2.0248-22.412-37.872-19.436-62.096 3.7129-30.218-1.2055 60.663-17.171 56.755-17.096-4.1848-11.476-64.547-12.336-64.547z" fill="#fff" stroke="#0c0909" stroke-width="2.7503"/>
  </g>
  <path d="m-291.71 718.54c78.002 0 137 21.71 216.07 27.814 93.139 1.1257 177.31-22.025 269.51-22.466 15.442 21.958 17.537 57.571 13.202 72.853 0 0-59.473-11.797-115.29-4.2883-55.819 7.5085-122.86 15.056-167.77 15.214-71.694 0.25151-214.21-22.6-214.21-22.6 6.5098-16.972 12.061-29.221-1.506-66.527z" fill="#800000" stroke="#fff" stroke-width="7.929"/>
  <ellipse transform="matrix(1.1913 0 0 1.1184 -511.19 -37.445)" cx="185.52" cy="708.3" rx="16.739" ry="29.136" d="m 202.2594,708.30273 c 0,16.09149 -7.49432,29.13621 -16.73903,29.13621 -9.24471,0 -16.73903,-13.04472 -16.73903,-29.13621 0,-16.09148 7.49432,-29.13621 16.73903,-29.13621 9.24471,0 16.73903,13.04473 16.73903,29.13621 z" fill="#800000" stroke="#fff" stroke-width="5.0457"/>
  <path d="m-108.09 743.1c-67.646 27.319-37.541 52.814-42.581 51.369-51.382-14.733 13.233-51.848 0.88094-43.904-40.772 26.22-8.8298 40.213-8.8298 40.213-2.7768 12.251-51.649-18.878-7.8039-46.056 0 0-35.374 17.051-6.2111 46.337-15.282-2.3958-29.587-12.115-29.163-29.286 0.5211-21.129 41.036-34.363 65.536-39.809 69.392-15.423 146.18-25.445 49.628 12.667z" fill="#fff" stroke="#000" stroke-width="4.3055"/>
  <path d="m29.834 743.9c70.603 22.216 42.465 47.055 47.422 45.5 50.533-15.85-17.867-47.234-4.7169-40.452 43.405 22.386 12.411 36.698 12.411 36.698 3.8687 11.176 50.442-19.685 3.8541-42.819 0 0 37.161 14.167 10.304 42.461 15.203-2.8825 28.781-12.476 26.857-28.293-2.368-19.463-44.381-29.885-69.564-33.828-71.326-11.168-149.64-17.029-48.945 13.868z" fill="#fff" stroke="#000" stroke-width="3.9284"/>
  <path d="m132.41 552.73c-12.435 141.91-57.556 181.34-154.14 189.52-88.814 7.5208-201.07-15.803-198.1-178.02 1.9606-107.14 87.716-207.44 196.22-199.32 93.574 7.0021 165.39 80.976 156.02 187.83z" fill="#500" stroke="#0f0505" stroke-width="3.7093"/>
  <g transform="matrix(1.0699 0 0 .88545 -464.97 117.39)" display="initial">
   <ellipse cx="392.7" cy="526.87" rx="137.52" ry="160.91" d="m 530.22264,526.87378 c 0,88.86723 -61.57001,160.90836 -137.52046,160.90836 -75.95046,0 -137.52046,-72.04113 -137.52046,-160.90836 0,-88.86723 61.57,-160.90836 137.52046,-160.90836 75.95045,0 137.52046,72.04113 137.52046,160.90836 z" fill="#fff" stroke="#000" stroke-width="2.3724"/>
   <text transform="scale(.96131 1.0403)" x="381.33148" y="394.02957" fill="#000000" font-family="sans-serif" font-size="43.798px" letter-spacing="0px" word-spacing="0px" style="line-height:125%">
    <tspan x="381.33148" y="394.02957">12</tspan>
   </text>
   <text x="441.61923" y="424.31937" fill="#000000" font-family="sans-serif" font-size="45px" letter-spacing="0px" word-spacing="0px" style="line-height:125%">
    <tspan x="441.61923" y="424.31937">1</tspan>
   </text>
   <text x="449.32928" y="659.89417" fill="#000000" font-family="sans-serif" font-size="45px" letter-spacing="0px" word-spacing="0px" style="line-height:125%">
    <tspan x="449.32928" y="659.89417">5</tspan>
   </text>
   <text x="320.99133" y="661.21344" fill="#000000" font-family="sans-serif" font-size="45px" letter-spacing="0px" word-spacing="0px" style="line-height:125%">
    <tspan x="320.99133" y="661.21344">7</tspan>
   </text>
   <text x="277.5954" y="611.87762" fill="#000000" font-family="sans-serif" font-size="45px" letter-spacing="0px" word-spacing="0px" style="line-height:125%">
    <tspan x="277.5954" y="611.87762">8</tspan>
   </text>
   <text x="386.08517" y="682.91138" fill="#000000" font-family="sans-serif" font-size="45px" letter-spacing="0px" word-spacing="0px" style="line-height:125%">
    <tspan x="386.08517" y="682.91138">6</tspan>
   </text>
   <text x="264.65671" y="488.65967" fill="#000000" font-family="sans-serif" font-size="45px" letter-spacing="0px" word-spacing="0px" style="line-height:125%">
    <tspan x="264.65671" y="488.65967">10</tspan>
   </text>
   <text x="299.32565" y="432.0452" fill="#000000" font-family="sans-serif" font-size="45px" letter-spacing="0px" word-spacing="0px" style="line-height:125%">
    <tspan x="299.32565" y="432.0452">11</tspan>
   </text>
   <text transform="scale(1.0255 .97513)" x="250.84201" y="561.98676" fill="#000000" font-family="sans-serif" font-size="45.226px" letter-spacing="0px" word-spacing="0px" style="line-height:125%">
    <tspan x="250.84201" y="561.98676">9</tspan>
   </text>
   <text transform="scale(1.1488 .8705)" x="432.86996" y="621.1875" fill="#000000" font-family="sans-serif" font-size="45.951px" letter-spacing="0px" word-spacing="0px" style="line-height:125%">
    <tspan x="432.86996" y="621.1875">3</tspan>
   </text>
   <text x="481.89987" y="477.22583" fill="#000000" font-family="sans-serif" font-size="45px" letter-spacing="0px" word-spacing="0px" style="line-height:125%">
    <tspan x="481.89987" y="477.22583">2</tspan>
   </text>
   <text x="488.69159" y="608.09247" fill="#000000" font-family="sans-serif" font-size="45px" letter-spacing="0px" word-spacing="0px" style="line-height:125%">
    <tspan x="488.69159" y="608.09247">4</tspan>
   </text>
   <g transform="translate(246 332) scale(.4)" fill="#500" fill-rule="evenodd" stroke="#ccc" stroke-width="1px">
    <path transform="rotate(0,367.3,487.5)" d="m342.28 450.74 8.1243 44.935l111.37 162.04-84.645-177.47-34.853-29.503z">
     <animateTransform attributeName="transform" dur="43200s" from="0,367.3,487.5" repeatCount="indefinite" to="360,367.3,487.5" type="rotate"/>
    </path>
    <path transform="rotate(0,367.3,487.5)" d="m365.94 557.75c6.0104-20.13 12.021-40.26 18.031-60.39-6.0104-91.812-12.021-183.62-18.031-275.44-6.0104 91.812-12.021 183.62-18.031 275.44 6.0104 20.13 12.021 40.26 18.031 60.39z">
     <animateTransform attributeName="transform" dur="3600s" from="0,367.3,487.5" repeatCount="indefinite" to="360,367.3,487.5" type="rotate"/>
    </path>
   </g>
  </g>
  <g transform="matrix(1.3158 .015191 -.1122 1.013 -256.56 197.77)">
   <path d="m97.87 199c-23.685-9.236-69.054 14.953-90.636 99.687-20.826 133.72 42.161 188.69 66.629 206.7l-12.78-34.247s20.938 30.012 43.031 22.248c-17.861-31.609-43.493-70.082-40.584-135.09 2.7961-62.475 63.628-144.05 34.34-159.3z" fill="#800000" stroke="#fff" stroke-width="4.5112"/>
   <ellipse transform="matrix(.83683 .54746 -.39256 .91973 -172.13 -152.82)" cx="367.88" cy="228.39" rx="7.3715" ry="19.399" d="m 375.25383,228.39079 c 0,10.71359 -3.30035,19.39867 -7.37154,19.39867 -4.07119,0 -7.37154,-8.68508 -7.37154,-19.39867 0,-10.71358 3.30035,-19.39866 7.37154,-19.39866 4.07119,0 7.37154,8.68508 7.37154,19.39866 z" fill="#fff"/>
   <ellipse transform="matrix(.83683 .54746 -.39256 .91973 -172.13 -152.82)" cx="390.86" cy="201.81" rx="7.3715" ry="19.399" d="m 398.23107,201.81392 c 0,10.71359 -3.30035,19.39866 -7.37154,19.39866 -4.07119,0 -7.37154,-8.68507 -7.37154,-19.39866 0,-10.71359 3.30035,-19.39867 7.37154,-19.39867 4.07119,0 7.37154,8.68508 7.37154,19.39867 z" fill="#fff"/>
   <ellipse transform="matrix(.90252 .43066 -.26606 .96396 -172.13 -152.82)" cx="325.14" cy="336.97" rx="7.3715" ry="19.399" d="m 332.51546,336.96762 c 0,10.71359 -3.30035,19.39867 -7.37154,19.39867 -4.07119,0 -7.37154,-8.68508 -7.37154,-19.39867 0,-10.71359 3.30035,-19.39866 7.37154,-19.39866 4.07119,0 7.37154,8.68507 7.37154,19.39866 z" fill="#fff"/>
   <ellipse transform="matrix(.90252 .43066 -.26606 .96396 -172.13 -152.82)" cx="347.2" cy="313.05" rx="7.3715" ry="19.399" d="m 354.5725,313.04706 c 0,10.71358 -3.30035,19.39866 -7.37154,19.39866 -4.07119,0 -7.37154,-8.68508 -7.37154,-19.39866 0,-10.71359 3.30035,-19.39867 7.37154,-19.39867 4.07119,0 7.37154,8.68508 7.37154,19.39867 z" fill="#fff"/>
   <ellipse transform="matrix(.95704 .28995 -.11798 .99302 -172.13 -152.82)" cx="284.07" cy="426.14" rx="7.3715" ry="19.399" d="m 291.44118,426.13599 c 0,10.71358 -3.30035,19.39866 -7.37154,19.39866 -4.07119,0 -7.37154,-8.68508 -7.37154,-19.39866 0,-10.71359 3.30035,-19.39867 7.37154,-19.39867 4.07119,0 7.37154,8.68508 7.37154,19.39867 z" fill="#fff"/>
   <ellipse transform="matrix(.98845 .15152 .023809 .99972 -172.13 -152.82)" cx="186.48" cy="497.46" rx="7.3715" ry="19.399" d="m 193.85268,497.46329 c 0,10.71358 -3.30035,19.39866 -7.37154,19.39866 -4.07119,0 -7.37154,-8.68508 -7.37154,-19.39866 0,-10.71359 3.30035,-19.39867 7.37154,-19.39867 4.07119,0 7.37154,8.68508 7.37154,19.39867 z" fill="#fff"/>
   <ellipse transform="matrix(.99579 -.09166 .33076 .94372 -172.13 -152.82)" cx="9.1808" cy="616.07" rx="6.3699" ry="14.295" d="m 15.550663,616.06952 c 0,7.89493 -2.8519,14.29504 -6.3698978,14.29504 -3.5179977,0 -6.3698984,-6.40011 -6.3698984,-14.29504 0,-7.89493 2.8519007,-14.29504 6.3698984,-14.29504 3.5179978,0 6.3698978,6.40011 6.3698978,14.29504 z" fill="#fff"/>
   <ellipse transform="matrix(.99683 .079623 .15339 .98817 -172.13 -152.82)" cx="141.18" cy="550.04" rx="6.2402" ry="13.15" d="m 147.41878,550.03705 c 0,7.26254 -2.79385,13.14999 -6.24024,13.14999 -3.44639,0 -6.24024,-5.88745 -6.24024,-13.14999 0,-7.26254 2.79385,-13.14999 6.24024,-13.14999 3.44639,0 6.24024,5.88745 6.24024,13.14999 z" fill="#fff"/>
  </g>
  <g transform="matrix(1.2116 0 0 1 -669.4 69.173)">
   <path d="m608.43 348.19c22.663-9.3394 78.743 2.5439 99.394 88.227 25.143 129.7-42.784 202.4-64.184 206.78l9.6603-28.808s-10.904 34.543-32.045 26.692c23.362-35.852 39.102-78.586 32.7-144.38-8.0164-82.385-73.551-133.09-45.525-148.51z" fill="#800000" stroke="#fff" stroke-width="4.4375"/>
   <ellipse transform="matrix(.90173 -.4323 .4678 .88383 111 4.826)" cx="288.41" cy="585.46" rx="7.9479" ry="17.871" d="m 296.36163,585.45581 c 0,9.86974 -3.5584,17.87074 -7.9479,17.87074 -4.38951,0 -7.94791,-8.001 -7.94791,-17.87074 0,-9.86974 3.5584,-17.87074 7.94791,-17.87074 4.3895,0 7.9479,8.001 7.9479,17.87074 z" fill="#fff"/>
   <ellipse transform="matrix(.99462 .10359 .12819 .99175 112.61 6.4347)" cx="504.76" cy="391.79" rx="8.1284" ry="18.172" d="m 512.88412,391.78726 c 0,10.03585 -3.63923,18.17151 -8.12844,18.17151 -4.48922,0 -8.12845,-8.13566 -8.12845,-18.17151 0,-10.03585 3.63923,-18.17151 8.12845,-18.17151 4.48921,0 8.12844,8.13566 8.12844,18.17151 z" fill="#fff"/>
   <ellipse transform="matrix(.97892 .20424 .026634 .99965 112.61 6.4347)" cx="560.62" cy="387.12" rx="8.1284" ry="18.172" d="m 568.74649,387.11993 c 0,10.03585 -3.63923,18.17151 -8.12845,18.17151 -4.48921,0 -8.12844,-8.13566 -8.12844,-18.17151 0,-10.03584 3.63923,-18.17151 8.12844,-18.17151 4.48922,0 8.12845,8.13567 8.12845,18.17151 z" fill="#fff"/>
   <ellipse transform="matrix(.90732 .42044 -.2141 .97681 112.61 6.4347)" cx="675.13" cy="271.07" rx="6.0681" ry="13.316" d="m 681.20175,271.06982 c 0,7.35424 -2.71678,13.31603 -6.06808,13.31603 -3.35131,0 -6.06808,-5.96179 -6.06808,-13.31603 0,-7.35423 2.71677,-13.31602 6.06808,-13.31602 3.3513,0 6.06808,5.96179 6.06808,13.31602 z" fill="#fff"/>
   <ellipse transform="matrix(.999 -.044782 .27358 .96185 112.61 6.4347)" cx="445" cy="442.93" rx="8.1284" ry="18.172" d="m 453.12689,442.93204 c 0,10.03585 -3.63923,18.17151 -8.12845,18.17151 -4.48921,0 -8.12844,-8.13566 -8.12844,-18.17151 0,-10.03585 3.63923,-18.17151 8.12844,-18.17151 4.48922,0 8.12845,8.13566 8.12845,18.17151 z" fill="#fff"/>
   <ellipse transform="matrix(.97892 .20424 .026634 .99965 112.61 6.4347)" cx="582.42" cy="344.12" rx="8.1284" ry="18.172" d="m 590.55258,344.12164 c 0,10.03585 -3.63923,18.17151 -8.12845,18.17151 -4.48921,0 -8.12844,-8.13566 -8.12844,-18.17151 0,-10.03585 3.63923,-18.17151 8.12844,-18.17151 4.48922,0 8.12845,8.13566 8.12845,18.17151 z" fill="#fff"/>
   <ellipse transform="matrix(.88913 .45766 -.19358 .98108 112.61 6.4347)" cx="696.89" cy="207.15" rx="7.5667" ry="17.996" d="m 704.45485,207.15118 c 0,9.93889 -3.38771,17.99595 -7.56667,17.99595 -4.17895,0 -7.56666,-8.05706 -7.56666,-17.99595 0,-9.93888 3.38771,-17.99594 7.56666,-17.99594 4.17896,0 7.56667,8.05706 7.56667,17.99594 z" fill="#fff"/>
   <ellipse transform="matrix(.81739 .57609 -.35914 .93329 112.61 6.4347)" cx="758.18" cy="150.52" rx="6.3387" ry="13.106" d="m 764.51561,150.52248 c 0,7.23805 -2.83792,13.10565 -6.33867,13.10565 -3.50075,0 -6.33867,-5.8676 -6.33867,-13.10565 0,-7.23806 2.83792,-13.10566 6.33867,-13.10566 3.50075,0 6.33867,5.8676 6.33867,13.10566 z" fill="#fff"/>
  </g>
  <g transform="matrix(.99882 .048646 -.048646 .99882 282.32 223.43)">
   <path d="m-126.9 72.283c4.1712 45.676-11.13 100.41-16.189 123.11-7.3865 33.141-2.6755 31.615-4.9317 59.228-28.535 11.282-45.998-37.15-49.486-42.453 0.0867 29.529-12.243 34.234-12.243 34.234-14.959 5.6207-30.731-25.772-30.731-25.772s0.20778 36.095-27.652 23.01c-19.9-9.3467-7.2763-56.829-16.676-49.893 0 0-22.207 33.214-43.214 24.841-10.808-4.3076-3.8701-38.892-3.8701-38.892-3.7997-9.459-11.946 22.923-40.862 20.909-30.547-2.1277-12.631-43.518-16.902-40.666 0 0-22.906 38.122-38.989 17.767-13.85-17.53 1.1563-29.238-4.8752-26.696 0 0-6.2341 26.562-30.567 15.14-20.364-9.5591-8.5176-41.837-8.5176-41.837-6.4737 21.45-18.01 42.549-38.755 24.291 0 0 41.95-89.229 65.828-147.94 14.111-34.697 28.248-66.841 38.089-79.547 0 0-11.84-53.001 1.3268-64.122 1.647-1.3911 26.363 54.153 86.851 49.68 19.026-1.4071 55 3.6826 74.9 10.18 19.899 6.4973 53.047 22.007 68.477 33.275 43.478 31.751 98.846 8.639 98.846 8.639 19.248 22.129-54.672 73.169-54.032 67.786z" fill="#800000" fill-rule="evenodd" stroke="#fff" stroke-width="6.067"/>
   <path d="m-202.29-12.678c-23.409-7.5939-55.014 7.4158-74.315 33.123-0.14061-30.545-22.007-59.8-44.118-67.068-21.065-6.8781-43.563-2.581-62.879 9.9205-19.175 12.411-33.95 33.362-43.596 58.583-23.209 60.686-9.1955 122.05 36.62 138.29 24.055 7.8059 50.02 8.4736 76.969-7.6917 13.624 24.071 26.244 33.253 59.03 41.443 43.858 5.3484 90.718-33.848 106.36-85.184 19.479-63.923-12.862-107.96-54.072-121.42z" fill="#faf4b5" stroke="#000" stroke-width="2.4044"/>
   <ellipse transform="matrix(.95061 .31038 -.31038 .95061 -592.65 -256.33)" cx="308.86" cy="217.41" rx="48.184" ry="58.668" d="m 357.04184,217.41133 c 0,32.40149 -21.57272,58.66808 -48.18402,58.66808 -26.6113,0 -48.18402,-26.26659 -48.18402,-58.66808 0,-32.40148 21.57272,-58.66808 48.18402,-58.66808 26.6113,0 48.18402,26.2666 48.18402,58.66808 z" fill="#fff" stroke="#000" stroke-width="9.109"/>
   <ellipse transform="matrix(.95061 .31038 -.31038 .95061 -592.65 -256.33)" cx="461.4" cy="211.81" rx="49.625" ry="61.903" d="m 511.02805,211.80742 c 0,34.18813 -22.21775,61.90309 -49.62473,61.90309 -27.40698,0 -49.62473,-27.71496 -49.62473,-61.90309 0,-34.18813 22.21775,-61.90309 49.62473,-61.90309 27.40698,0 49.62473,27.71496 49.62473,61.90309 z" fill="#fff" stroke="#000" stroke-width="9.2698"/>
   <path d="m-285.09 142.69c-24.329 14.985-57.363 13.335-62.232-11.903 0 0 19.435 1.6297 32.393-14.518 18.823-23.457-14.882-54.003 16.112-21.979 12.377 12.789 19.715 31.89 38.143 37.1 4.6341 1.3101-24.417 11.3-24.417 11.3z" fill="#800000" stroke="#000" stroke-width="1.6556"/>
   <path d="m-286.6 135.4c-15.436 11.827-48.391 18.092-51.66 0.71401 0 0 15.383-3.3407 25.515-13.282 14.988-14.705 1.9384-40.535 16.059-25.525 3.2361 3.44 25.746 26.094 25.746 26.094z" fill="#faf4b5" stroke="#000" stroke-width="1.7533"/>
   <path d="m-259.5 129.89c-32.789-7.8464-19.931-21.947-44.977-36.236-18.594-10.647-27.059 3.5592-25.347-1.1215 4.0059-10.955 38.924-66.732 47.88 6.7149 2.8387 23.281 27.002 21.778 22.444 30.642z" fill="#800000" stroke="#000" stroke-width="2"/>
   <ellipse transform="matrix(.95061 .31038 -.31038 .95061 -592.65 -256.33)" cx="319.42" cy="230.4" rx="21.435" ry="26.898" d="m 340.85587,230.39996 c 0,14.8555 -9.59657,26.89825 -21.43454,26.89825 -11.83797,0 -21.43455,-12.04275 -21.43455,-26.89825 0,-14.85549 9.59658,-26.89825 21.43455,-26.89825 11.83797,0 21.43454,12.04276 21.43454,26.89825 z" fill="#061305" stroke="#000" stroke-width="8.709"/>
   <ellipse transform="matrix(.95061 .31038 -.31038 .95061 -592.65 -256.33)" cx="453.39" cy="225.25" rx="21.435" ry="26.898" d="m 474.82056,225.2457 c 0,14.85549 -9.59657,26.89825 -21.43454,26.89825 -11.83797,0 -21.43454,-12.04276 -21.43454,-26.89825 0,-14.8555 9.59657,-26.89825 21.43454,-26.89825 11.83797,0 21.43454,12.04275 21.43454,26.89825 z" fill="#061305" stroke="#000" stroke-width="8.709"/>
   <ellipse transform="matrix(.95061 .31038 -.31038 .95061 -592.65 -256.33)" cx="330.86" cy="223.2" rx="8.4057" ry="10.087" d="m 339.26706,223.20428 c 0,5.57081 -3.76336,10.08685 -8.4057,10.08685 -4.64234,0 -8.4057,-4.51604 -8.4057,-10.08685 0,-5.5708 3.76336,-10.08684 8.4057,-10.08684 4.64234,0 8.4057,4.51604 8.4057,10.08684 z" fill="#fff"/>
   <ellipse transform="matrix(.95061 .31038 -.31038 .95061 -592.65 -256.33)" cx="319.93" cy="246.42" rx="5.884" ry="6.3043" d="m 325.81792,246.41698 c 0,3.48175 -2.63435,6.30427 -5.88399,6.30427 -3.24964,0 -5.88399,-2.82252 -5.88399,-6.30427 0,-3.48176 2.63435,-6.30428 5.88399,-6.30428 3.24964,0 5.88399,2.82252 5.88399,6.30428 z" fill="#fff"/>
   <ellipse transform="matrix(.95061 .31038 -.31038 .95061 -592.65 -256.33)" cx="457.21" cy="220.5" rx="8.4057" ry="10.087" d="m 465.62048,220.50246 c 0,5.57081 -3.76336,10.08684 -8.4057,10.08684 -4.64234,0 -8.4057,-4.51603 -8.4057,-10.08684 0,-5.57081 3.76336,-10.08685 8.4057,-10.08685 4.64234,0 8.4057,4.51604 8.4057,10.08685 z" fill="#fff"/>
   <ellipse transform="matrix(.95061 .31038 -.31038 .95061 -592.65 -256.33)" cx="446.25" cy="239.34" rx="5.0434" ry="5.4637" d="m 451.28921,239.33679 c 0,3.01752 -2.25802,5.46371 -5.04342,5.46371 -2.78541,0 -5.04342,-2.44619 -5.04342,-5.46371 0,-3.01752 2.25801,-5.4637 5.04342,-5.4637 2.7854,0 5.04342,2.44618 5.04342,5.4637 z" fill="#fff"/>
   <path d="m-353.89-29.025c-23.447-13.715-42.699-28.833-51.436-44.813 14.251 13.666 36.691 17.827 31.75 15.172-4.9409-2.6546-22.406-19.087-31.755-32.893 0 0 19.978 14.318 27.817 16.236 0.61635 0.20778-14.331-20.992-20.911-35.338 17.238 7.6314 38.424 41.067 58.985 57.291 25.705 19.331 57.225 29.793 57.917 39.956-18.768 11.51-54.776-6.1236-72.366-15.61z" fill="#800000" stroke="#fff" stroke-width="6.344"/>
   <path d="m-193.47 23.694c27.373 1.8319 51.827 0.07808 67.608-8.4222-19.374 3.3895-40.967-5.9378-35.32-5.3528 5.6471 0.58504 29.228-3.3021 44.423-9.6147 0 0-24.674 0.66313-32.455-2.2035-0.6411-0.1772 23.204-9.5322 36.276-17.887-18.865-3.4185-54.402 12.704-80.56 14.643-32.213 1.62-64.916-7.5807-70.734 0.60913 10.363 20.464 50.639 26.175 70.762 28.228z" fill="#800000" stroke="#fff" stroke-width="6.4271"/>
  </g>
 </g>
</svg>
