<?xml version="1.0" encoding="UTF-8"?>
<svg version="1.1" viewBox="0 0 200.15 210.38" xmlns="http://www.w3.org/2000/svg">
 <defs>.fil0 {fill:#00A859}     .fil8 {fill:#201E1E}     .fil9 {fill:#ED2F59}     .fil2 {fill:#F58634}     .fil5 {fill:#F5886C}     .fil1 {fill:#F8AC92}     .fil4 {fill:#FEFEFE}     .fil6 {fill:#FFCC29}     .fil10 {fill:#FFF212}     .fil7 {fill:#CA735F}     .fil3 {fill:#CC8E7C}</defs>
 <path class="fil0" d="m111.98 210.38l-73.13-0.35c-16.422-23.695-27.152-47.08-32.189-70.156-6.6193-21.52-1.3126-38.724 15.92-51.611 28.248-4.9798 50.416-1.018 66.504 11.886 3.9796 2.61 10.147 28.231 18.503 76.862 2.492 13.101 3.956 24.223 4.391 33.369z" fill="#00f"/>
 <path class="fil1" d="m59.845 75.929c6.8028-18.448 5.5782-36.702-3.6741-54.761-0.7009-3.2153-1.8673-5.6063-3.4989-7.1731-11.527-10.606-25.29-9.7307-41.289 2.6244-1.8217 7.9745-1.3552 16.839 1.3998 26.592-2.9316 2.0845-2.9316 6.4001 0 12.947 2.6654 4.7741 5.6979 7.107 9.0976 6.9982 5.763 12.516 12.353 23.188 19.77 32.016 12.6 8.0519 23.039 15.925 31.316 23.618-1.0788-10.904-2.2449-18.368-3.4989-22.393-4.1036-8.6208-7.3109-15.444-9.6223-20.469z" fill="#f8ac92"/>
 <path class="fil3" d="m48.65 30.71c1.9559-2.271 1.6458-2.7851-0.9304-1.542-3.8279 4.5569-4.014 11.338-0.5584 20.344-1.2296-8.9517-0.7333-15.219 1.4888-18.802z" fill="#cc8e7c"/>
 <path class="fil2" d="m21.006 54.76c-0.1276 3.4355 0.5138 4.0769 1.9245 1.9246-1.8644-5.0657-3.7889-9.6144-5.7736-13.646 0.4398-3.4027-1.0764-7.3681-4.5486-11.897-2.4687-4.6283-1.5939-8.8271 2.6245-12.596 3.933-4.0024 9.5898-5.1107 16.97-3.324 3.4559 1.3416 3.2807 0.525-0.5251-2.4495 2.0591-1.1185 3.8669-0.9433 5.4235 0.525 0.3769-2.7276 1.6015-3.2523 3.6741-1.5747 2.0769 0.0555 2.4909-1.303 1.2418-4.0756 5.2995 2.0426 9.1204 4.4564 11.464 7.2409 2.7725-2.391 2.0947-4.6125-2.0333-6.6643-0.3908-1.9354 0.6004-3.2185 2.9742-3.849-3.1455-0.3309-5.8281-0.4473-8.0479-0.3498 0.1488-1.9658 1.1985-3.3071 3.1492-4.0239-4.6555 1.3549-8.2711 1.5879-10.847 0.6999-4.8092-1.3459-9.2996-0.7045-13.471 1.9245-6.6057-0.7313-11.738 2.4178-15.396 9.4474-3.655 8.878-2.6638 19.258 2.9742 31.14 3.8662 3.3934 6.6074 7.2428 8.2228 11.547z"/>
 <g fill="#cc8e7c">
  <path class="fil3" d="m35.264 40.764c-3.8904-0.0238-7.6809 0.851-11.372 2.6244 2.4281-4.2395 6.2186-5.1143 11.372-2.6244z"/>
  <path class="fil3" d="m59.372 35.77c-3.8903-0.0238-7.6809 0.851-11.372 2.6245 2.4281-4.2395 6.2186-5.1143 11.372-2.6245z"/>
 </g>
 <path class="fil2" d="m19.869 38.752c-1.7189 2.0127-2.2148 1.7502-1.4871-0.7872 1.8885-4.9715 6.1458-7.4502 12.772-7.4356 3.2655 1.3707 3.1488 2.3332-0.3501 2.8866-5.4982-0.021202-9.1429 1.7576-10.934 5.3362z"/>
 <path class="fil2" d="m62.364 27.614c2.5842 0.5724 2.8222 0.064301 0.7135-1.5238-4.5008-2.8328-9.3924-2.249-14.674 1.7515-1.7823 3.0604-1.1097 3.7586 2.0173 2.0942 4.3775-3.3269 8.3586-4.1008 11.944-2.3219z"/>
 <path class="fil3" d="m53.548 66.482c-2.0326 4.5371-5.0945 5.4704-9.1852 2.7994 3.7938 0.8609 6.8554-0.072098 9.1852-2.7994z" fill="#cc8e7c"/>
 <path class="fil4" d="m35.44 62.895c-1.7936-1.4078-1.6478-2.0491 0.4374-1.9245 8.1411 1.3684 14.41 0.0271 18.807-4.0239 1.5741-1.1959 2.2158-0.8167 1.9245 1.1373-3.1445 8.2588-10.201 9.8623-21.169 4.8111z" fill="#fefefe"/>
 <path class="fil5" d="m123.53 81.966c-0.98-2.2261-2.379-4.2676-4.198-6.1247-12.323-9.9664-20.254-21.922-25.368-40.064 1.6193-16.988-4.6207-26.668-18.72-29.041-12.329 4.2603-19.268 12.716-20.819 25.368-0.6252 4.4418-0.1584 7.7073 1.3998 9.7971 1.4891 2.358 1.8974 5.0991 1.2246 8.2228 0.1012 5.5857 3.3085 11.476 9.6223 17.67 4.4812 3.5581 7.6885 6.2407 9.6222 8.0478-20.925-0.6288-37.644-1.9833-50.156-4.0629 0.5422-9.2946-1.6336-12.606-6.5277-9.9334-6.9896 4.0322-13.054 7.9398-18.195 11.722-2.6971 4.2471-1.5307 7.8042 3.4993 10.672 4.3816 3.2321 8.1725 5.3315 11.372 6.2982-7.2659 4.4637-11.64 11.287-13.122 20.47-0.3411 2.764-1.0411 4.981-2.0997 6.649-0.0331 4.387 0.6083 8.119 1.9245 11.197 0.2334 1.982 0.2334 4.081 0 6.298 2.8053 0.701 4.0881-0.58099 3.8491-3.849-0.5383-4.003-1.2379-7.211-2.0995-9.623 0.1422-1.7 0.8421-3.683 2.0995-5.948 1.9827-4.665 2.9742-6.998 2.9742-6.998-2.0237 5.789-2.6069 9.871-1.7496 12.247 0.0763 2.933-0.3346 6.866-1.2329 11.799 2.8284 2.412 4.464 1.395 4.9067-3.052 0.0654-5.016 0.0072-9.507-0.1749-13.471 0.1197-4.622 2.5689-8.296 7.3479-11.022-5.1986 6.213-5.0237 10.236 0.525 12.072 1.6125-0.652 2.079-2.518 1.3995-5.599-0.851-1.827 0.023802-4.043 2.6245-6.648 3.0572-4.355 4.1651-8.0871 3.324-11.197 22.533 1.8779 46.268 4.3271 71.205 7.3479 7.9048 23.826 17.994 33.098 30.267 27.817 9.309-13.266 7.735-28.953-4.724-47.061z" fill="#f5886c"/>
 <path class="fil6" d="m131.92 210.38l39.365-0.35c-6.662-15.299-10.277-25.971-10.847-32.016-0.731-28.853-6.796-52.589-18.195-71.206-10.242-23.062-18.268-33.616-24.078-31.662-6.643-0.79639-11.097 0.077103-13.362 2.6205 9.082 1.1363 14.973 5.51 17.671 13.122 4.644 9.9001 6.801 19.406 6.473 28.517-1.536 7.124-5.56 7.59-12.072 1.399-7.65-7.223-12.49-13.404-14.521-18.544-1.025-1.322-2.4831-1.672-4.3732-1.051-1.9477 9.515-2.4645 19.879-3.4996 30.967-0.7297 7.817 1.8901 11.928 9.7968 12.597 5.897 1.29 9.162 3.272 9.798 5.948 4.856 11.4 8.239 19.623 10.147 24.668 4.193 15.908 6.759 27.571 7.697 34.991z" fill="#d4aaff"/>
 <path class="fil7" d="m69.462 53.45c-0.21-8.5798-2.8718-14.96-7.9861-19.14 6.5072 2.7481 9.169 9.128 7.9861 19.14z" fill="#ca735f"/>
 <path class="fil8" d="m61.065 35.08c-4.6151-2.0369-6.5981-0.8123-5.9484 3.6738 0.6549-2.4753 2.6376-3.6999 5.9484-3.6738z" fill="#7f3f00"/>
 <g fill="#201e1e">
  <path class="fil8" d="m55.291 47.152c2.9432 1.9331 6.6755 1.583 11.197-1.0497-3.9842-1.6485-6.9585-1.4736-8.9223 0.525-0.6341 0.7568-1.3922 0.9317-2.2747 0.5247z"/>
  <path class="fil8" d="m82.234 38.929c-2.1153 1.1446-3.165 2.3692-3.1491 3.6742 1.5354-1.1469 3.4017-1.672 5.5987-1.5748 3.2433 0.8249 5.8092 0.5333 7.6977-0.8744-3.5624-1.4253-6.9449-1.8336-10.147-1.225z"/>
 </g>
 <path class="fil8" d="m64.738 15.136c-6.6807 5.6919-10.121 12.107-10.321 19.244-2.8397-10.789 1.7089-19.536 13.646-26.243 13.491-4.4765 25.796-2.8436 36.914 4.8991 8.137 8.5474 11.403 18.578 9.797 30.091-3.625 6.4417-4.15 12.39-1.575 17.845 3.635 2.9382 6.959 3.9879 9.973 3.1492 18.765 0.4638 31.303 6.4123 37.614 17.845 10.109 11.383 23.23 15.349 39.364 11.896-9.387 13.236-22.742 15.452-40.064 6.6482-12.816-6.8422-22.555-14.832-29.217-23.968-5.348-4.6732-9.955-6.8311-13.821-6.4734-3.518 0.3904-6.725-1.1258-9.622-4.5486-7.8564-12.48-13.338-23.794-16.446-33.941 4.385 27.093 15.056 44.355 32.016 51.786-17.058-4.1906-28.78-21.103-35.165-50.736-0.1375-0.8821-0.2943-1.7321-0.4698-2.5503-3.1028-1.0121-7.4948-1.0954-13.175-0.249 3.4232-2.6816 7.5126-3.7449 12.268-3.1898-3.0426-9.5105-9.3482-13.521-18.917-12.031 2.3788-3.7789 5.2363-6.2281 8.5726-7.3479-6.5865 2.2802-10.377 4.9047-11.372 7.8729z" fill="#7f3f00"/>
 <path class="fil9" d="m85.732 60.973c1.1733-0.203 2.4561-0.4946 3.849-0.8748-1.1727 5.7048-3.8553 9.5538-8.0479 11.547-3.9961 0.5134-7.9615-1.2362-11.896-5.2486 0.522-0.6556 1.3968-1.3555 2.6241-2.0994 1.9314-1.1604 3.9141-1.3939 5.9484-0.6999 1.9959-1.333 4.5037-2.2078 7.5229-2.6241z" fill="#f0f"/>
 <path class="fil4" d="m78.559 65.172c2.7544-1.288 5.6119-2.3378 8.5726-3.1491-4.7811 7.2349-9.5049 8.6344-14.171 4.1988 1.6021-0.6222 3.4681-0.972 5.5983-1.0497z" fill="#fefefe"/>
 <path class="fil10" d="m113.02 71.645c1.92-1.3926 3.903-1.6257 5.949-0.6999-0.547-3.9304 0.211-6.4963 2.274-7.6978 1.394-1.8213 0.927-2.8129-1.4-2.9742-3.031-1.8313-5.014-1.7146-5.948 0.3498-2.941 1.82-4.341 4.2692-4.199 7.3479 0.874 1.6806 1.982 2.9052 3.324 3.6742z" fill="#d4aaff"/>
 <path class="fil1" d="m39.201 182.74c-2.0409-15.571 3.7323-27.292 17.32-35.165 14.156 9.552 23.429 16.783 27.817 21.694 5.387 4.42 10.169 7.511 14.346 9.272 6.6725-1.26 13.83-2.334 21.472-3.221-5.825-4.811-10.066-8.869-14.823-11.825-1.108-6.264-2.31-10.538-3.587-18.982 4.711 0.056 10.919 3.172 11.578 4.415 2.6 4.906 5.793 13.307 10.904 25.939l3.638-0.364c2.586-0.248 5.221-0.477 7.908-0.686 10.146-1.729 17.727-5.17 22.744-10.322 7.835-0.38301 12.676 1.424 14.521 5.424 0.625 1.557 1.266 2.781 1.925 3.674 0.627 7.906 0.276 12.98-1.05 15.221-2.557 1.492-3.782 3.825-3.674 6.998-0.96901 3.957-1.785 7.573-2.449 10.847-1.543 1.923-3.06 1.865-4.549-0.17601-1.283 2.624-2.624 2.565-4.024-0.175-4.174 2.553-5.632 0.92001-4.374-4.898-3.016-1.906-2.141-5.93 2.625-12.072-14.352 11.786-31.497 18.959-51.436 21.519-8.0061 0.233-16.568-2.157-25.474-7.173-5.4413-2.101-12.493-5.831-22.214-8.862-7.4795-3.825-14.143-6.743-19.143-11.082z" fill="#f8ac92"/>
</svg>
