<?xml version="1.0" encoding="UTF-8"?>
<svg viewBox="0 0 1052.3622 744.09448" xmlns="http://www.w3.org/2000/svg" xmlns:xlink="http://www.w3.org/1999/xlink">
 <defs>
  <linearGradient id="d" x1="1351.6" x2="1268.7" y1="111.28" y2="100.71" gradientTransform="matrix(.69391 0 0 1.4411 -113 -96)" gradientUnits="userSpaceOnUse">
   <stop stop-color="#785d3f" offset="0"/>
   <stop stop-color="#785d3f" stop-opacity="0" offset="1"/>
  </linearGradient>
  <linearGradient id="c" x1="1018.6" x2="969.65" y1="68.809" y2="145.25" gradientTransform="matrix(.85193 0 0 1.1738 -113 -96)" gradientUnits="userSpaceOnUse">
   <stop stop-color="#ddb890" offset="0"/>
   <stop stop-color="#ddb890" stop-opacity="0" offset="1"/>
  </linearGradient>
  <linearGradient id="b" x1="439.82" x2="442.65" y1="108.51" y2="159.33" gradientTransform="matrix(1.9321 0 0 .51758 -113 -96)" gradientUnits="userSpaceOnUse">
   <stop stop-color="#c8b197" offset="0"/>
   <stop stop-color="#c8b197" stop-opacity="0" offset="1"/>
  </linearGradient>
  <radialGradient id="a" cx="977.47" cy="130.81" r="45.528" fx="978.28" fy="131.98" gradientTransform="matrix(.84423 0 0 1.1845 -113 -96)" gradientUnits="userSpaceOnUse">
   <stop stop-color="#6adfff" offset="0"/>
   <stop stop-color="#40869a" offset="1"/>
  </radialGradient>
 </defs>
 <g transform="matrix(1.8176 0 0 1.8176 -855.9 333.4)">
  <path d="m828.46-24.906c-10.976-10.634-26.503-5.199-40.144-8.1213-15.842-3.4699-28.481-24.961-45.516-12.556-12.36 3.5367-23.353 10.23-36.802 9.6772-16.484-5.4972-23.599 9.6219-18.354 23.834 0.68179 16.299 2.6483 32.52 3.6781 48.754 0.89144 13.453-9.067 37.882 10.325 41.522 12.013 5.9615 25.278 5.8103 37.695 9.925 11.009 9.0094 27.329 3.3701 36.34 15.983 12.121 9.781 23.865 0.95303 29.278-9.6327 11.015-9.4088 32.583-9.009 34.006-26.392-0.38491-14.065 17.278-18.385 13.258-34.137-6.6752-12.634 7.0053-29.559-7.7392-38.633-7.1738-7.677-7.6345-20.597-19.487-24.222" fill="#b39473" fill-rule="evenodd"/>
  <path d="m836.54-19.906c-13.437-4.4835-23.9 9.782-37.206 8.222-18.9-2.9461-26.026 15.954-17.468 30.598 0.85121 17.333 6.2674 34.081 6.5901 51.515 6.8121 10.479-5.4841 32.235 7.1008 36.445 10.654-5.871 16.896-22.01 31.629-22.764 16.545-3.9391 12.174-24.523 10.609-37.063-0.94599-16.449 1.8422-32.654 3.2025-48.952 1.2287-10.079-2.7714-18.943-13.548-21" fill="url(#d)" fill-rule="evenodd"/>
  <path d="m786 109.09c-12.688-7.8848-25.159-16.431-41.027-16.877-15.417 0.18805-27.921-9.9905-40.67-17.106-13.87-14.498-10.057-34.726-11.682-52.959-0.08408-15.914-9.7662-38.933 3.1955-50.3 12.743-2.864 24.117 8.2882 37.126 8.5929 15.267 3.7048 36.612-1.7153 43.535 16.018 5.4479 15.146 4.2141 32.256 8.0428 48.064 3.0717 16.859 1.4538 34.109 3.4294 51.064 0.65544 3.0216 1.7356 5.9428 2.0501 9.0402" fill="url(#c)" fill-rule="evenodd"/>
  <path d="m830-27.906c-1.7061 13.429-22.521 6.9677-32 13-16.407 9.9205-32.377 2.3205-46.752-6.4704-13.518-1.1639-28.001 1.1627-39.878-7.1792-6.9342-6.2382-21.537-1.897-25.657-5.7774 13.707-5.0697 28.928-2.612 42.591-8.2974 14.117-6.4874 30.989-9.7224 42.988 2.8508 13.518 3.5684 26.96 8.1911 41.088 8.3423 4.9882 3.6776 16.39-0.56963 18.103 5.5312" fill="url(#b)" fill-rule="evenodd"/>
  <path d="m746 79.094c19.912 5.3757 15.363-18.536 16.5-30.56 1.571-13.42-1.6578-29.1-9.5-39.44-13.847-7.3333-28.194-17.744-44.667-16.308-13.746 9.409-6.6204 28.5-8.3107 42.526-2.3935 19.283 13.877 32.738 30.789 37.438 6.1938 2.4542 12.388 5.061 18.188 8.3441" fill="url(#a)" fill-rule="evenodd"/>
  <path d="m736 6.0945c11.226 1.1798 25.947 18.796 16.599 26.995-4.0168-9.8566-13.429-17.233-16.599-26.995z" fill="#fff" fill-opacity=".70588" fill-rule="evenodd"/>
  <path d="m772 59.094c14.948 0.36285 6.7045 21.543 5.4835 29.136-11.739-2.1173-9.0241-25.018-2.0262-28.868l2.5427 0.73176" fill="#8f7253" fill-opacity=".80543" fill-rule="evenodd"/>
  <path d="m689.91-35.315c-4.6527 15.461 2.8042 32.038 3.8572 47.84 4.3929 17.533-1.1836 35.466 0.80965 53.039 5.0358 16.041 25.245 13.824 37.72 20.542 12.985 3.3024 26.783 3.5788 37.986 12.205 6.1463 4.9298 30.174 7.4842 15.14 14.016-14.322-4.4856-26.604-13.706-40.789-18.246-16.562-0.61405-31.553-8.6286-47.352-12.813-14.965-6.5964-9.7352-25.404-9.3236-38.191 2.3123-23.75-6.3326-46.88-6.9461-70.475-0.75658-6.2318 4.9892-5.653 8.8975-7.9162z"/>
  <path d="m682.46-25.167c-3.2959-18.711 22.101-14.85 34.115-15.448 14.482 1.1888 23.975-11.025 38.174-11.583 13.301 1.8185-8.7827 7.3567-13.726 5.7762-4.4448-0.46082-19.02 8.5067-8.9606 2.8836-11.905 9.162-27.552 9.0489-41.664 6.8897-4.8166-3.5562 6.9607-0.80256-1.9687 3.8154 2.8012 4.0286-3.7509 5.0172-5.9695 7.6665z"/>
  <path d="m760.31-51.441c12.41 1.946 20.223 15.251 33.772 14.095 14.635 1.0222 29.244 4.1459 43.043 8.803 13.211 4.588-2.1319 17.17-5.3822 5.4094-11.248-5.1105-23.994-6.8466-36.198-8.8024-12.423 0.2704-24.363-3.8419-33.469-12.433-11.408-2.8294-9.37-1.1194-1.7648-7.0723z"/>
  <path d="m842.13-23.157c7.0027 10.957 2.841 26.074 1.3754 38.422-9.0219 14.764 0.42429 30.053 1.9542 45.177 1.3874 9.3406 0.32973 22.893-10.781 25.05 7.9033-13.495 2.5182-30.97-1.849-45.352-3.1121-13.272 7.6458-25.031 5.3092-38.472 4.493-9.7672-7.9657-20.095 3.4316-24.418l0.55975-0.40668z"/>
  <path d="m841.39 78.522c-2.1421 10.594-28.142 12.306-26.425 12.378 3.9714-2.0409-10.592 12.895-15.064 15.836-5.726 5.31-22.843 9.9013-9.6065 2.0305 1.2823 1.0895 11.044-4.0413 3.751 0.04924 10.858-12.257 23.477-24.755 40.944-25.413-9.4482 3.8752 5.9292-5.2238 6.4012-4.8807z"/>
  <path d="m845.16-10.025c17.61 6.0939 10.315 24.585 10.214 38.133 2.7715 14.051-2.6578 26.392-13.349 35.671-10.451 5.9384 10.646-13.194 6.5027-19.186-2.1535-13.254 2.1195-26.521 1.0655-39.64-3.1685-10.206-18.397-7.3536-4.4333-14.978z"/>
  <path d="m826.83-30.395c17.353 9.93-11.956 16.91-21.24 16.997-9.9452 1.9059-26.464 1.5464-24.369 14.333-12.308 0.84807 7.7996-18.93 16.952-15.557 7.8893-2.2958 27.576-3.3377 28.799-5.5551 5.145-8.8326-11.022-4.6258-0.1425-10.218z"/>
  <path d="m682.46-21.431c2.4767-13.843 22.676-15.683 32.481-7.9746 11.541 7.5464 25.399 6.4214 38.318 8.4529 12.027 0.55152 30.839 7.5617 28.746 21.61-7.4283 5.3823-5.822-14.549-16.225-14.727-13.184-5.1335-27.552-3.9828-41.154-6.7236-12.378-2.9522-23.2-14.036-36.587-8.5276 6.3199-6.479-1.8262 8.6313-5.5809 7.8899z"/>
  <path d="m782.53-4.6695c-2.5525 24.679 10.16 47.888 7.7308 72.607-0.45101 13.473 1.816 26.821 2.2023 40.202-8.6078 13.928-3.7025-15.039-6.2084-21.561-0.87884-19.206 0.23367-38.654-5.4334-57.307 0.03709-8.9599-9.7708-30.045 1.7086-33.942z"/>
  <path d="m749.53 79.996c-13.563-5.676-27.906-10.17-40.434-17.882-10.633-10.839-9.586-27.778-10.17-41.928-2.5943-13.367 2.0889-33.217 19.806-29.369 14.879 6.3015 36.894 8.1829 42.942 25.965 2.8855 19.323 3.3189 39.918 0.26722 59.109-3.3212 11.114-25.862-0.23711-11.198 2.4732 17.544 2.9754 6.3845-26.065 9.5956-36.608 2.4397-17.345-4.0258-38.097-23.57-41.229-11.555-6.464-36.966-15.275-34.574 7.4277 0.51977 16.634-1.7735 35.153 7.6238 49.801 11.733 9.4594 27.016 13.646 40.842 19.383 5.0183-0.21943-0.43076 1.8864-1.1293 2.8571z"/>
  <path d="m776.72 61.43c-12.551-5.7222-5.5073 15.472-5.0922 21.993 2.7217 3.7464 15.543 7.9475 8.173 3.393 2.6187-8.9314-2.1101-21.825-1.7513-26.675 7.8044 3.383 8.0186 24.272 2.1627 30.222-17.812 3.2443-19.628-32.538-3.5497-31.557 6.9952-1.1161 1.2657 1.4052 0.05757 2.6239z"/>
 </g>
</svg>
